/* XPM */
static char *_c63ef754a6c4483b4dd85e9ab412b802D3QL8b2ObYQmsJG[] = {
/* columns rows colors chars-per-pixel */
"32 32 22 1 ",
"  c #060608",
". c #412320",
"X c #59302C",
"o c #5C322D",
"O c #6D3B36",
"+ c #4D3B43",
"@ c #503E45",
"# c #503E46",
"$ c #513F46",
"% c #513F47",
"& c #514047",
"* c #514148",
"= c #524148",
"- c gray36",
"; c #434F65",
": c #9A544C",
"> c #6F7F9F",
", c gray55",
"< c #8895AF",
"1 c gray68",
"2 c #A6B0C4",
"3 c white",
/* pixels */
"&&&&&&&&*$*$*$*$*$*$$*$*$**$*$*$",
"&&&&&&&&$*$*$*$*$*$**$*$*$$*$*$*",
"&&&&&&&&*$***$*$*$*$$*$$*%%$*$*$",
"&&&&&&&&$*$*$*$*$*$**$*$$$%*$*$*",
"&&&&&&&&&&**&<<<<<<$*$*$++$**$*$",
"&&&&&&&&&$$+$<<<<<<*$**$++$*$*$*",
"&&&&&&&<<<<<;<<<<<<;<<<<<$%**$*$",
"&&&&&&&<<<<<;222222;<<<<<%$*$*$*",
";<<<<<;<<<<<;>>>>>>;<<<<<;<<<<<;",
";<<<<<;22222;>>>>>>;22222;<<<<<;",
";<<<<<;>>>>>;>>>>>>;>>>>>;<<<<<;",
";22222;>>>>>;>>>>>>;>>>>>;22222;",
";>>>>>;>>>>>X.XXXX.X>>>>>;>>>>>;",
";>>>>>XXX.XXX.XXXX.XXX.XXX>>>>>;",
";>>>>>XXX.OOOoOOOOoOOO.XXX>>>>>;",
";;;;;;OOOoOOOoOOOOoOOOXOOO;;;;;;",
";22222,,1oOOOo     OOOoOOO22222;",
";>>>>>,11oOOO -1133 OOoOOO>>>>>;",
";>>>>>OOOoOO -1   -3 OoOOO>>>>>;",
";>>>>>OOOoOO -1   -3 OoOOO>>>>>;",
";>>>>>OOOoO -11111113 oO1O>>>>>;",
";;;;;;OOOoO -11111113 oO1O;;;;;;",
";22222OOOoO -111  113 oO1O22222;",
";>>>>>OOOoO -111  111 oO1O>>>>>;",
";>>>>>OOOoO -111  111 oO1O>>>>>;",
";>>>>>OOOoO -11111111 oOOO>>>>>;",
";>>>>>OOOoO -11111111 oOOO>>>>>;",
";;;;;;OOOoOO         OoOOO;;;;;;",
";22222,,1oOOOoOOOOoOOOoOOO22222;",
";>>>>>,11oOOOoOOOOoOOOoOOO>>>>>;",
";>>>>>OOOoOOOoOOOOoOOOoOOO>>>>>;",
";>>>>>:::o:::o::::o:::o:::>>>>>;"
};
