/* XPM */
static char *_a78aa1f96d94251efe838daaa44184eE4wRuoxb3tZXM6Q7[] = {
/* columns rows colors chars-per-pixel */
"32 32 17 1 ",
"  c #412320",
". c #59302C",
"X c #4D3B43",
"o c #4E3B43",
"O c #503E45",
"+ c #503F45",
"@ c #503E46",
"# c #503F46",
"$ c #513F46",
"% c #513F47",
"& c #514047",
"* c #514148",
"= c #524148",
"- c #434F65",
"; c #6F7F9F",
": c #8895AF",
"> c #A6B0C4",
/* pixels */
"&&&&&&&&*$*$*$*$*$*$$*$*$**$*$*$",
"&&&&&&&&$*$*$*$*$*$**$*$*$$*$*$*",
"&&&&&&&&*$***$*$*$*$$*$$*%%$*$*$",
"&&&&&&&&$*$*$*$*$*$**$*$$$%*$*$*",
"&&&&&&&&&&**&::::::$*$*$XX$**$*$",
"&&&&&&&&&$$o$::::::*$**$XX$*$*$*",
"&&&&&&&:::::-::::::-:::::o%**$*$",
"&&&&&&&:::::->>>>>>-:::::*$*$*$*",
"-:::::-:::::-;;;;;;-:::::-:::::-",
"-:::::->>>>>-;;;;;;->>>>>-:::::-",
"-:::::-;;;;;-;;;;;;-;;;;;-:::::-",
"->>>>>-;;;;;-;;;;;;-;;;;;->>>>>-",
"-;;;;;-;;;;;&&&&$$**;;;;;-;;;;;-",
"-;;;;;&&&&&&&&&&*$$$%%%*%*;;;;;-",
"-;;;;;&&&&&&&&&&$$XX$**$*%;;;;;-",
"------&&&&&&&&&&*$XX$*$*$*------",
"->>>>>*$%$*&&&&&%$$$$%*$*$>>>>>-",
"-;;;;;$**$$$$&&&%**%*$$*$*;;;;;-",
"-;;;;;*$*$XX$&&&$*%*%*****;;;;;-",
"-;;;;;$*&$XX$*&&*$*$$$$$$%;;;;;-",
"-;;;;;$$&$$o&&&&$*$**$XX$*;;;;;-",
"------*$$$**&&&&*$*$*oXX$*------",
"->>>>>$OXX$*&&&&$*$**&$$$%>>>>>-",
"-;;;;;&$OX$*&&&&*$*$&&***%;;;;;-",
"-;;;;;*$$o*&&&&&$*$*$*$*$*;;;;;-",
"-;;;;;$*****&&&&*$*$*$*$*$;;;;;-",
"-;;;;;*$$*$*&&&&$*$*$*$*$*;;;;;-",
"------$**$*$        *$*$*$------",
"->>>>>                    >>>>>-",
"-;;;;;                    ;;;;;-",
"-;;;;;      . .... .      ;;;;;-",
"-;;;;;... ... .... ... ...;;;;;-"
};
