/* XPM */
static char *e26c6c5bcdb7494b9182cbf0582d45bfox7xl7C2SzNHNE6H[] = {
/* columns rows colors chars-per-pixel */
"32 32 116 2 ",
"   c black",
".  c #020202",
"X  c #090909",
"o  c gray4",
"O  c #181708",
"+  c #201F0A",
"@  c #24230A",
"#  c #27250D",
"$  c #37340A",
"%  c #3B390F",
"&  c #1C1C22",
"*  c #333229",
"=  c #2D2D33",
"-  c #444117",
";  c #4D4A1A",
":  c #4F4B1D",
">  c #4F4C1E",
",  c #524F1B",
"<  c #504C1E",
"1  c #54511C",
"2  c #5A561E",
"3  c #5E5920",
"4  c #5F5A23",
"5  c #5F5C20",
"6  c #44433A",
"7  c #504F37",
"8  c #625F21",
"9  c #686423",
"0  c #797427",
"q  c #7A7528",
"w  c #736A34",
"e  c #746938",
"r  c #756B3A",
"t  c #74683F",
"y  c #75693F",
"u  c #7A6F3F",
"i  c #4D3B43",
"p  c #4E3B43",
"a  c #503E45",
"s  c #503E46",
"d  c #503F46",
"f  c #513F46",
"g  c #513F47",
"h  c #464646",
"j  c #484841",
"k  c #4B4B4B",
"l  c #4D4D4F",
"z  c #514047",
"x  c #5E4D41",
"c  c #514148",
"v  c #524148",
"b  c #515151",
"n  c #625343",
"m  c #605144",
"M  c #665843",
"N  c #64634A",
"B  c #716440",
"V  c #726540",
"C  c #726541",
"Z  c #746741",
"A  c #786C40",
"S  c #606060",
"D  c #646460",
"F  c #656565",
"G  c #656569",
"H  c #686868",
"J  c gray43",
"K  c #737375",
"L  c #867C3D",
"P  c #958D39",
"I  c #98913A",
"U  c #9F973C",
"Y  c #9F983C",
"T  c #A59F37",
"R  c #A8A238",
"E  c #A9A13B",
"W  c #ADA73A",
"Q  c #ACA53D",
"!  c #AEA83A",
"~  c #AFA83B",
"^  c #B0A93B",
"/  c #B3AD3C",
"(  c #BDB740",
")  c gray52",
"_  c #8D8D8C",
"`  c #90908F",
"'  c #929292",
"]  c #959595",
"[  c #979797",
"{  c #9D9D9D",
"}  c #9D9DA1",
"|  c #A4A4A4",
" . c gray68",
".. c #ADADAE",
"X. c gray70",
"o. c gray71",
"O. c #B6B6B6",
"+. c #B7B7B7",
"@. c gray75",
"#. c gray76",
"$. c gray79",
"%. c #CACACA",
"&. c #CDCDCD",
"*. c #CECECD",
"=. c #D2D2D2",
"-. c gray83",
";. c #D5D5D5",
":. c gray84",
">. c #D7D7D7",
",. c gray85",
"<. c gray86",
"1. c gainsboro",
"2. c #E9E9E9",
"3. c #F9F9F9",
"4. c #FEFEFE",
"5. c white",
/* pixels */
"z z z z z z z z z z z z z z z z z z z z z z z z z z c f c f c f ",
"z z z z z z z z z z z z z z z z z z z z z z z z z z f c f c f c ",
"z z z z z z z z z z z z z z z z z z z z z z z z c c f f c f c f ",
"z z z z z z z z z z z f z z z z z z z z z z z z f f g c f c f c ",
"z z z z z z z z z z c c z z z z z z z z z z c f p p f c c f c f ",
"z z z z z z z z z f f f f z z z z z z z z z c p i p f c f c f c ",
"z z z z z z z z c f p p f z z z z z z z z z z f p s g c c f c f ",
"z z z z z z z z c p p p f c z z z z z z z z z z c c f c f c f c ",
"z z z z z z z c m W ~ E f z z z z z z z z z z z c g f c f c f c ",
"z z z z z z z V r 2 2 2 y M z z z z z z z z z z g c c f c f c f ",
"z z z z z z z Q 0       T L z z z z z z z z z z c f c c f c f c ",
"z z z z z V I + 6 <.<.*.O : Y P P P P P P P P P P P V f c f c f ",
"z z z z z A /   = 5.5.5.  $ ( W W W W W W W W W W W A c f c f c ",
"z z z z Z w 8 D K [ [ [ H N 9 5 5 5 5 5 5 5 5 5 5 5 w Z c f c f ",
"z z z z ^ ;   5.>.      5.}                         ; ^ f c f c ",
"z z z z ~ 1    .'     o X.$.<.<.<.<.<.<.=.>.<.>.+.  1 W c f c f ",
"f c f c ~ 1   { )     o | @.<.<.<.<.<.1.5.3.<.5.2.  1 ~ z z z z ",
"c f c f ^ ;    .'       $.G             5.+.  >.5.  1 ~ z z z z ",
"f c f c Z w 8 j l J F F k 7 9 5 8 9 #   H h   b S   1 ~ z z z z ",
"c f c g c A /   & &.#.+.  % ( W W ( -               , ~ z z z z ",
"f c f c c V I @ * { [ _ O > Y P P U > O O O O O O O 5 U z z z z ",
"c f c f f c f Q 0       R L z z f c L R R R R R R E A z z z z z ",
"f c f c c f f t r 2 2 5 y M z z c f M Z y t t t y y n z z z z z ",
"c f c f g f g f x ^ Q T z z z z f c c f z z z c z z z z z z z z ",
"f c f c f c f c p c z z z z z z z z z z z z z z z z z z z z z z ",
"c f c f c f c f c z z z z z z z z z z z z z z z z z z z z z z z ",
"f c f c f c f c z z z z z z z z z z z z z z z z z z z z z z z z ",
"c f c f c f c f z z z z z z z z z z z z z z z z z z z z z z z z ",
"f c f c f c f c z z z z z z z z z z z z z z z z z z z z z z z z ",
"c f c f c f c f z z z z z z z z z z z z z z z z z z z z z z z z ",
"f c f c f c f c z z z z z z z z z z z z z z z z z z z z z z z z ",
"c f c f c f c f z z z z z z z z z z z z z z z z z z z z z z z z "
};
