/* XPM */
static char *_21c82e32f4a47d8a2ac09fe06715cbbhrKb1NUaJhr3jjoy[] = {
/* columns rows colors chars-per-pixel */
"32 32 161 2 ",
"   c #030203",
".  c #080607",
"X  c #060608",
"o  c #090708",
"O  c #0B0A0C",
"+  c #1B0C0E",
"@  c #0B0E11",
"#  c #100D10",
"$  c #071114",
"%  c #091114",
"&  c #0C171E",
"*  c #121315",
"=  c #1C1719",
"-  c #1C181A",
";  c #1D1517",
":  c #200B0D",
">  c #270E10",
",  c #281416",
"<  c #221A1E",
"1  c #32181B",
"2  c #381214",
"3  c #251E21",
"4  c #281D20",
"5  c #252125",
"6  c #2C2226",
"7  c #27262A",
"8  c #2F2529",
"9  c #2C2A2E",
"0  c #32272B",
"q  c #34292D",
"w  c #382A2E",
"e  c #362C30",
"r  c #3A2E33",
"t  c #3D3036",
"y  c #3E3439",
"u  c #363438",
"i  c #5B0F0E",
"p  c #4D1111",
"a  c #4F1A1B",
"s  c #531515",
"d  c #451A22",
"f  c #4D292C",
"g  c #413339",
"h  c #47383F",
"j  c #533035",
"k  c #483429",
"l  c #6C2123",
"z  c #632A31",
"x  c #772F32",
"c  c #393C41",
"v  c #423D43",
"b  c #4C3B42",
"n  c #503E46",
"m  c #653D43",
"M  c #753F42",
"N  c #3F4449",
"B  c #44454A",
"V  c #514047",
"C  c #584047",
"Z  c #524148",
"A  c #4A4D54",
"S  c #514E54",
"D  c #4D575D",
"F  c #505157",
"G  c #50545A",
"H  c #5A595D",
"J  c #545B5C",
"K  c #6A574E",
"L  c #6F5258",
"P  c #525C62",
"I  c #5B5B62",
"U  c #566167",
"Y  c #646165",
"T  c #66646C",
"R  c #626A73",
"E  c #627076",
"W  c #69787F",
"Q  c #67757D",
"!  c #757079",
"~  c #7A747D",
"^  c #822728",
"/  c #842B2C",
"(  c #902222",
")  c #8C373C",
"_  c #8E3A3F",
"`  c #823A3D",
"'  c #983B3D",
"]  c #B83434",
"[  c #B13333",
"{  c #AA3737",
"}  c #C03231",
"|  c #CE3C3C",
" . c #D13C3C",
".. c #C45B28",
"X. c #CB6020",
"o. c #8F3F44",
"O. c #8D484D",
"+. c #A14746",
"@. c #A5575C",
"#. c #B96B4B",
"$. c #916D73",
"%. c #9D6C73",
"&. c #B46668",
"*. c #C04E4F",
"=. c #C44446",
"-. c #D0574E",
";. c #C97950",
":. c #6A7C85",
">. c #767780",
",. c #7D7982",
"<. c #817E87",
"1. c #718087",
"2. c #7F8285",
"3. c #76848C",
"4. c #79868C",
"5. c #7E8D95",
"6. c #808E8D",
"7. c #81818B",
"8. c #838691",
"9. c #868994",
"0. c #868E98",
"q. c #908C96",
"w. c #839091",
"e. c #81909A",
"r. c #8C909B",
"t. c #95969E",
"y. c #9C9399",
"u. c #8996A1",
"i. c #9E9FA9",
"p. c #979BA6",
"a. c #93A3AE",
"s. c #9AA7B1",
"d. c #95ABB6",
"f. c #9BADB7",
"g. c #9AADB8",
"h. c #9EB2BC",
"j. c #A5ACB6",
"k. c #AFB7B7",
"l. c #A4B1BA",
"z. c #BFBEBC",
"x. c #C1BFBF",
"c. c #A3B6C3",
"v. c #A6BBC6",
"b. c #A6BEC9",
"n. c #A8BFCA",
"m. c #A9C0CB",
"M. c #B4C4CC",
"N. c #BAC8D0",
"B. c #B2C9D5",
"V. c #C8C6C6",
"C. c #CAC8C7",
"Z. c #CBD5DB",
"A. c #D9D6D6",
"S. c #D4E1E6",
"D. c #DEE6E9",
"F. c #ECECEE",
"G. c #FFEBE9",
"H. c #EFF6F9",
"J. c #FFF2F3",
"K. c #F7FEFF",
"L. c #FBFEFE",
/* pixels */
"V V V V V V V V V V V V V V V V V V V V V V V V V V V V V V V V ",
"V V V V V V V V V V V V V V V V V V V V V V V V V V V V V V V V ",
"V V V V V V V V V V V n V V V Z V V V V V V V V V Z V V V V V V ",
"V V V V V V V V V V 6 X X X o r V V V V V V V V b V V V V V V V ",
"V V V V V V V V V V 5 o : : : 0 b V V V V V Z V b b Z Z V V V V ",
"V V V V V V V V V V 3 + ^ ] ( 2 3 V V Z V V V V b b n Z V V V V ",
"V V V V V V V V Z n t 6 s ' @.1 X 6 6 6 6 g Z V n n b Z V V V V ",
"V V V V V V V V V n b g * B 8.y O * * * * 6 b Z Z Z V V V V V V ",
"V V V V V V V V V n r * B ! <.4.3.3.3.4.5.B = g n Z n Z Z n Z Z ",
"V V V V V V V V b r 3 v 9.p.9.s.m.v.v.m.B.U   g n Z Z Z n Z Z b ",
"V V V V V V V V g o v q.s.h.f.f.g.g.f.l.v.J o g Z Z Z n Z Z Z Z ",
"V V V V V V V V g   G l.f.m.F.H.K.K.K.K.K.2.o g Z n n Z Z b Z Z ",
"V V V V V V V V g o P m.d.Z.L.A.z.V.V.V.x.Y o g V V V V Z Z n Z ",
"V V V V V V V V g o P v.d.S.L.H X o * * O X # g V V V V Z n V V ",
"V V V V V V V V g o S j.d.S.L.k.w.w.&   4.J O g V V V V V V V V ",
"V V V V V V V V g o u ~ r.N.F.J.J.J.K k G.y.o y V V V V V V V V ",
"V V V V V V V V g   o 7 W a.t.&.=.#.....-.z O g Z Z Z V V V V V ",
"V V V V V V V V n j ,   M @.O.o._ _ #.;.+.d o g Z Z Z Z V V V V ",
"V V V V V V V V Z n f O ^ } { $.r.<.<.9.r.B o g Z n Z Z V V V V ",
"V V V V V V V V n ' a O L %.$.i.n.c.c.c.c.D o g n Z Z b V V V V ",
"V V V V V V V m ` ] p $ R p.0.:.:.:.E :.l.I o r n Z V V V V V V ",
"V V V V V V V ) ] ] p % T t.,.9       3 ,.F o r n Z V V V V V V ",
"V V V V V V Z x  .| s % >.>.e l i   u I y 5 6 e b b V V V V V V ",
"V V V V Z n b f / / 2 @ I c O l l . A Y @ 3 r q r b V V V V V V ",
"V V V V V V q q q w ; o % ; q r < o @ * 6 r q q q e b Z Z n Z V ",
"V V V V V V 8 q r r 6 < - 4 r t 0 < - < q r q q 8 8 Z Z Z Z V V ",
"V V V V V V r q 0 q e r r w q q w r r w q q 0 q q r Z n V V V V ",
"V V V V V V b r 8 0 q q q q 0 0 q q q q 0 q 0 0 r b Z Z V V V V ",
"V V V V V V V g 0 q q q q q q q q q q q q q q 0 y V V V V V V V ",
"V V V V V V V V V V Z n Z V Z V V V V V V V Z Z n V V V V V V V ",
"V V V V V V V V V V V V Z n V V V V V V V V V V V V V V V V V V ",
"V V V V V V V V V V V V V Z V V V V V V V V V V V V V V V V V V "
};
