/* XPM */
static char *_023bab5efee44d59a5335fb6cde8bcdeITe7GqELy7L0HA5[] = {
/* columns rows colors chars-per-pixel */
"32 32 169 2 ",
"   c #020202",
".  c #080607",
"X  c #060608",
"o  c #0A0709",
"O  c #060A0C",
"+  c #0B0A0B",
"@  c #1C0A0C",
"#  c #16100D",
"$  c #0F0F10",
"%  c #140F11",
"&  c #151113",
"*  c #191416",
"=  c #1A1619",
"-  c #1C191B",
";  c #12191D",
":  c #270000",
">  c #2C0607",
",  c #260C11",
"<  c #221A1E",
"1  c #321315",
"2  c #32181A",
"3  c #3C1416",
"4  c #151C20",
"5  c #281F23",
"6  c #3C1D20",
"7  c #1D262A",
"8  c #1A2D31",
"9  c #232226",
"0  c #2A2226",
"q  c #212428",
"w  c #2E2529",
"e  c #262A2D",
"r  c #2B2A2D",
"t  c #31262B",
"y  c #34292E",
"u  c #3A2327",
"i  c #2B2E33",
"p  c #232E33",
"a  c #372B30",
"s  c #392D32",
"d  c #2C3134",
"f  c #273236",
"g  c #343336",
"h  c #3E3136",
"j  c #34353A",
"k  c #3D3338",
"l  c #541414",
"z  c #591515",
"x  c #5C1A1B",
"c  c #402528",
"v  c #4C2B2F",
"b  c #572628",
"n  c #5B2729",
"m  c #57282A",
"M  c #5A282B",
"N  c #482E31",
"B  c #413137",
"V  c #44363C",
"C  c #47383E",
"Z  c #48393F",
"A  c #54353A",
"S  c #6F2D2F",
"D  c #66292A",
"F  c #752425",
"G  c #64373A",
"H  c #313B40",
"J  c #3F3B40",
"K  c #4E3D44",
"L  c #423E43",
"P  c #513F46",
"I  c #6E3C41",
"U  c #7A3E42",
"Y  c #374145",
"T  c #4B464B",
"R  c #47474A",
"E  c #514047",
"W  c #5E4146",
"Q  c #524148",
"!  c #4B4C52",
"~  c #514E54",
"^  c #4C555B",
"/  c #51585E",
"(  c #5A545A",
")  c #525A60",
"_  c #5C5F66",
"`  c #5A626A",
"'  c #69676F",
"]  c #626D6D",
"[  c #78656E",
"{  c #666C70",
"}  c #6D737B",
"|  c #73727B",
" . c #83232A",
".. c #97282E",
"X. c #803A3E",
"o. c #8D3335",
"O. c #9D3636",
"+. c #AD2F2F",
"@. c #A52E2E",
"#. c #BB3636",
"$. c #B33636",
"%. c #C13837",
"&. c #C43938",
"*. c #CD3C3C",
"=. c #A74F13",
"-. c #AF4835",
";. c #CD5F3D",
":. c #8D4448",
">. c #9E4B4E",
",. c #985156",
"<. c #AD5558",
"1. c #835E66",
"2. c #9A6D74",
"3. c #84757E",
"4. c #8B787A",
"5. c #A16469",
"6. c #D06B48",
"7. c #DD7D40",
"8. c #C76954",
"9. c #C56E71",
"0. c #D56E73",
"q. c #DA7271",
"w. c #7E7780",
"e. c #7E7982",
"r. c #827B84",
"t. c #9A7D85",
"y. c #77868E",
"u. c #7A818A",
"i. c #7F9099",
"p. c #83828C",
"a. c #968889",
"s. c #868A94",
"d. c #8F8F99",
"f. c #8F8B94",
"g. c #908B95",
"h. c #85959E",
"j. c #89939D",
"k. c #939398",
"l. c #BE9395",
"z. c #8D9CA5",
"x. c #9896A1",
"c. c #91A3AC",
"v. c #9FA3AE",
"b. c #92A6B0",
"n. c #9DA7B1",
"m. c #9AADB9",
"M. c #97A9B6",
"N. c #9DB1BA",
"B. c #B5AEAD",
"V. c #A2ABB6",
"C. c #A0B1B9",
"Z. c #B3B2B1",
"A. c #9EB2C1",
"S. c #A3B9C4",
"D. c #ADBEC7",
"F. c #ADBFCA",
"G. c #BAC4CA",
"H. c #B4CBD7",
"J. c #C7C5C4",
"K. c #CBC9C9",
"L. c #D1CFCE",
"P. c #C0CCD3",
"I. c #C0D0D7",
"U. c #D7E0E4",
"Y. c #E0E5E8",
"T. c #ECEAE9",
"R. c #EDF1F4",
"E. c #FDF6F6",
"W. c #FDFFFF",
/* pixels */
"E E E E E E E E E E E E E E E E E E E E E E E E E E E E E E E E ",
"E E E E E E E E E E E E E E E E E E E E E E E E E E E E E E E E ",
"E E E E E E E E E E E E E E E E E E E E Q E E Q E E E E Q E E E ",
"E E E E E E E E E E E E E E E E E 0 X X X X w P E E E E E E E E ",
"E E E E E E E E E E E E E E E K a 2 l x 3 + 9 P P P P P K P P P ",
"E E E E E E E E E E Q Q E E E g O x #.&.F + w E Q P K K K K K Q ",
"E E E E E E E E E E Z < - - - &   A 5.D 1 s K E Q Q P K K K P Q ",
"E E E E E E E Q E C y q e e 7 7 7 ` u.j - C K E Q Q P K K K K Q ",
"E E E E E E E Q K < r y.c.h.h.i.h.s.r.| T + y E Q P P Q P Q P Q ",
"E E E E E E E Q K & d b.H.A.A.G.S.c.f.V.p.L 0 y L Q Q Q Q Q P Q ",
"E E E E E E E E K * d z.G.M.N.N.N.C.N.N.n.f.L . B Q Q P Q P Q P ",
"E E E E E E E E K = R U.W.W.W.W.W.R.U.D.N.V.!   s P P Q Q Q P Q ",
"E E E E E E P Q K = g Z.K.L.K.J.J.T.W.G.m.S./ o h E E E K Q P Q ",
"E E E E E E E E P - O # - q - + + k.W.P.m.S.^ . h E E E Q Q Q K ",
"E E P E E E E E K - q { p   Y ] ] G.W.I.M.V.! o h Q E E E E Q Q ",
"E E Q E E E E E K * ! E.a.# B.W.W.W.R.G.z.r.j + h Q E E E E E E ",
"Q P P P P Q Q P K * u 9.6.=.8.0.q.l.V.n.} s $   s P P Q Q P Q P ",
"Q Q P P Q P Q Q K * ,  .;.7.-.....:.1.2.P   % c K Q Q P P Q P Q ",
"P Q T P P Q Q P K * 5 [ a.4.3.3.3.,.+.#.F X N P P Q P Q E Q Q E ",
"Q P Q P Q P P Q P * e i.A.M.m.N.m.a.>.<.G X b U Q P Q P E P E E ",
"P Q P Q P Q P P K * i z.C.c.c.c.c.j.p.k.) $ z $.I P P Q E E E E ",
"Q P P Q Q P Q Q P & i x.} 7 d d 8 ` k.x./ O z $.O.X.X.P E E E E ",
"Q P Q P P P P P L - q ( T -     : N ' g._ O z &.&.o.o.E E E E E ",
"Q Q P Q P P P C y y 5 o ! e.7 > @.x ; | { O z &.*.S S E E E E E ",
"K Q Q P Q E B s t s t < w ! ; , M 3 * g j O 1 M n c c P P P P E ",
"Q Q Q Q P Q y w y y y s < . o & a V y % X + < s s t t P P Q E E ",
"P Q Q K E Q w w y y y s w 0 5 w a a y 0 9 5 t s a t t P E Q E E ",
"Q K Q Q E Q h a t t t y y s s y y y y a s s y t t y t P E E E E ",
"E E E E E Q K V w t t y y y y y y y y t y y y y t h h E E E E E ",
"E E E E E Q K K K K P E E E E E T P E E E E E E E Q E E E E P Q ",
"E E E E E E E P E E E E E E E E E E E E E E E E E E E E E E E E ",
"E E E E E E E E E E E E E E E E E E E E E E E E E E E E E E E E "
};
