/* XPM */
static char *_7b0a665ac4d490ce2530f25a2808f8e3Us56tQIaAhPL49E[] = {
/* columns rows colors chars-per-pixel */
"32 32 167 2 ",
"   c #020202",
".  c #080607",
"X  c #060608",
"o  c #0A0709",
"O  c #060A0C",
"+  c #0B0A0A",
"@  c #1C0A0C",
"#  c #16100D",
"$  c #0F0F10",
"%  c #130F10",
"&  c #151113",
"*  c #191416",
"=  c #1A1518",
"-  c #1C181B",
";  c #12191D",
":  c #270000",
">  c #2C0607",
",  c #260C11",
"<  c #221A1D",
"1  c #321315",
"2  c #32181A",
"3  c #3C1416",
"4  c #151C20",
"5  c #251E21",
"6  c #281F23",
"7  c #3D1D20",
"8  c #1D262A",
"9  c #1A2D31",
"0  c #242225",
"q  c #2B2226",
"w  c #212428",
"e  c #2F2429",
"r  c #262A2D",
"t  c #2B2B2E",
"y  c #31262A",
"u  c #34292D",
"i  c #3A2327",
"p  c #2B2E33",
"a  c #232E33",
"s  c #372B30",
"d  c #3A2E33",
"f  c #273236",
"g  c #2C3134",
"h  c #343336",
"j  c #3E3136",
"k  c #34343A",
"l  c #3D3338",
"z  c #541414",
"x  c #591515",
"c  c #5C1A1B",
"v  c #412529",
"b  c #5A2729",
"n  c #57282A",
"m  c #5B292B",
"M  c #4B2E31",
"N  c #403237",
"B  c #43353B",
"V  c #47383E",
"C  c #4A393F",
"Z  c #54353A",
"A  c #6F2D2F",
"S  c #66292A",
"D  c #752425",
"F  c #64373A",
"G  c #313B40",
"H  c #3F3B40",
"J  c #4E3D44",
"K  c #423E43",
"L  c #503F46",
"P  c #6E3C41",
"I  c #7A3E42",
"U  c #374145",
"Y  c #49464A",
"T  c #514047",
"R  c #5E4146",
"E  c #524148",
"W  c #4B4C52",
"Q  c #514E54",
"!  c #4C555B",
"~  c #51585E",
"^  c #5A545A",
"/  c #525A60",
"(  c #5C5F66",
")  c #5A626A",
"_  c #69676F",
"`  c #626D6D",
"'  c #78656E",
"]  c #666C70",
"[  c #6D737B",
"{  c #73727B",
"}  c #83232A",
"|  c #97282E",
" . c #803A3E",
".. c #8D3335",
"X. c #9D3636",
"o. c #AD2F2F",
"O. c #A52E2E",
"+. c #BB3636",
"@. c #B33636",
"#. c #C13837",
"$. c #C43938",
"%. c #CD3C3C",
"&. c #A74F13",
"*. c #AF4835",
"=. c #CD5F3D",
"-. c #8D4448",
";. c #9E4B4E",
":. c #985156",
">. c #AD5558",
",. c #835E66",
"<. c #9A6D74",
"1. c #84757E",
"2. c #8B787A",
"3. c #A16469",
"4. c #D06B48",
"5. c #DD7D40",
"6. c #C76954",
"7. c #C56E71",
"8. c #D56E73",
"9. c #DA7271",
"0. c #7E7780",
"q. c #7E7982",
"w. c #827B84",
"e. c #9A7D85",
"r. c #77868E",
"t. c #7A818A",
"y. c #7F9099",
"u. c #83828C",
"i. c #968889",
"p. c #868A94",
"a. c #8F8F99",
"s. c #8F8B94",
"d. c #908B95",
"f. c #85959E",
"g. c #89939D",
"h. c #939398",
"j. c #BE9395",
"k. c #8D9CA5",
"l. c #9896A1",
"z. c #91A3AC",
"x. c #9FA3AE",
"c. c #92A6B0",
"v. c #9DA7B1",
"b. c #9AADB9",
"n. c #97A9B6",
"m. c #9DB1BA",
"M. c #B5AEAD",
"N. c #A2ABB6",
"B. c #A0B1B9",
"V. c #B3B2B1",
"C. c #9EB2C1",
"Z. c #A3B9C4",
"A. c #ADBEC7",
"S. c #ADBFCA",
"D. c #BAC4CA",
"F. c #B4CBD7",
"G. c #C7C5C4",
"H. c #CBC9C9",
"J. c #D1CFCE",
"K. c #C0CCD3",
"L. c #C0D0D7",
"P. c #D7E0E4",
"I. c #E0E5E8",
"U. c #ECEAE9",
"Y. c #EDF1F4",
"T. c #FDF6F6",
"R. c #FDFFFF",
/* pixels */
"T T T T T T T T E L E L E L E L E E L E T T T T T T T T T T T T ",
"T T T T T T T T E L L E L E L E E L E L T T T T T T T T T T T T ",
"T T T T T T T T L E J Y E E L L E L L E T T T L T T T T E T T T ",
"T T T T T T T T E e X X X X q E L E E L T T T T T T T T T T T T ",
"T T T T T T T T T 0 . z c z 2 u J E T T T T T T L L L J J J E L ",
"T T T T T T T T E e + D $.+.c O d L T L T T T T E L L J J J L E ",
"T T T T T T T T E V j 1 S 3.Z   & = = < 5 J T T E E L J J J L T ",
"T T T T T T T E E J l - G t.) w 8 r r r 8 u V T E E L J J L J T ",
"T T T T L E L T L u + Y 1.q.p.f.f.k.y.k.r.t < T L E T T T T T T ",
"T T T T E L E J u 0 K u.x.p.z.Z.C.C.Z.F.c.g & J E L T E E T T T ",
"T T T T E E E j . K d.v.m.m.m.b.m.m.m.D.k.g * J L E L E T T T T ",
"T T T T L E L j   W N.b.A.P.Y.R.R.R.R.R.P.Y * J E L E L T T T T ",
"T T T T T T E j + ! Z.b.D.R.U.G.G.H.J.H.V.h - T T T T T T T T T ",
"T T T T T T E j . ! Z.b.K.R.h.+ O - 0 ; $ + - J T T T T T T T T ",
"T T L T T T T N + W N.n.L.R.G.` ` U   f ] 0 = J T T T T T T T T ",
"T T E T T T T j . l w.k.D.Y.R.R.R.M.# i.T.W = J T T T T T T T T ",
"T T T T E L E j   O g [ n.B.j.9.8.6.&.4.7.i = J T T T T L T T T ",
"L T T T L E E Z i @   R <.,.-.| | *.5.=.} , = J E T T T E T T T ",
"E T T T E L E E E M . D #.o.:.{ 1.1.2.i.' 0 * J E T T T T T T T ",
"T T T T T E L E I m + F >.;.e.C.m.n.n.m.y.t * J E T T T T T T T ",
"T T T T T T L P @.z O / h.u.k.z.z.z.z.Z.k.g * J T T T T T T T L ",
"T T T T T T  .X.+.z O ~ l.h.( 9 f a w { h.p & L L T T T T T T E ",
"T T T T T T ..#.$.x O ) d._ M :     = Y ^ 0 < V J E E T T T T T ",
"T T T T T E A %.$.x O _ { ; c O.> 8 q.W + 6 s s V E T T T T T T ",
"T L T T T T v m b 1 O k k * 7 b @ - W t < u d u d j N L L E L E ",
"T E T T T T u d j < +   % u B u & o   < d s u u e e y J L L E L ",
"T T T T T T u s s e 6 0 q u d u e 0 q e s u u u q y y L L E L E ",
"T T T T T E s e e u s d d y y u s d d u u u y u u d d L E E E L ",
"T T T T T E d y e y y u u y u u u u u u u u y u B L L T L E L E ",
"T T T T T E L J J J T T T T T T L L T T T T T T T E E T E L E L ",
"T T T T T T L L T T T T T T T T T T T T T T T T T T T T T T T T ",
"T T T T T T T T E E T T T T T T T T T T T T T T T T E L T T T T "
};
