/* XPM */
static char *_7d14374bfa94407dcffff46beb86d0dyAmJD9RqUasN91dI[] = {
/* columns rows colors chars-per-pixel */
"36 81 19 1 ",
"  c None",
". c #280916",
"X c #20121C",
"o c #29072F",
"O c #3B0E20",
"+ c #3B0F21",
"@ c #3E2530",
"# c #4A2B38",
"$ c #65253E",
"% c #312841",
"& c #3F3A57",
"* c #4D0C4F",
"= c #5A4772",
"- c #F22525",
"; c #BA5D22",
": c #CD7A26",
"> c #875368",
", c #D1A22A",
"< c #A16891",
/* pixels */
"                                    ",
"                                    ",
"                        ooo         ",
"                      oooo          ",
"                     oooo           ",
"                  ooooooo           ",
"               oooooo***ooo         ",
"              oooooo***oooo         ",
"              ooooo****##+++        ",
"      *      ooooo*****o++#ooo      ",
"     **    oooo***o****+++###oo     ",
"     *o   oo*********++++o@##ooo    ",
"    o*    o**********+++.*o@##oo    ",
"   o**    ***********+++.***@##oooo ",
"   o**o  o***********+++.***@@#oooo ",
"   o**ooo************.+++***@@#oooo ",
"   o*o*o*************.++++**@@@*oooo",
"   oo****************..+++**@@@**ooo",
"   ooo***************..+++*@@@****oo",
"    oooo*************...+++@@@****oo",
"      ooooo***********...++++@*****o",
"          o************...++++*****o",
"          oo***********....++++****o",
"           o***********#.....+++**oo",
"           oo**********##.....++**oo",
"            o**********#@-.....+*oo ",
"             ******.***@@-......ooo ",
"             o*********@@--.....oo  ",
"              o****o****@@-O....oo  ",
"              ooo*ooo**o@@OO....o   ",
"             ==oo&oooo.**@O....o    ",
"             ==&&&&&&oooo+.....     ",
"             =&&&;;X&    O....      ",
"            ==&&;;;X&    .....      ",
"            ==&&:;;XX&    ...+      ",
"            =&&&:::XX=    .OOO      ",
"      ,,,:=%=&&XX::XX&     +...     ",
"       ::;::&%:&>XXXX&,,,   OO      ",
"        %=;:::>%<&XXX,::    .O      ",
"       &&&&;:::&&&&&:,:     .+      ",
"      &&&&%;;;:::&&&&:,     .+      ",
"      &&&&%%%;;:,::,,:;     .O      ",
"     &&&&&%%%:%;;::;;;;    <.O      ",
"     &&&&%%%:%:%;;;;;;&&&&&>>>      ",
"     &&&&%%%%;:%&&%%;&&&&&&>>>      ",
"     &&&&% %%%;:%&&%&&&&&&&%>>      ",
"     &&&%  %%%<:%%&&%%%%%%%%.+      ",
"     &&&%  %%%&&%&&& %%%%%%%.O      ",
"    %&&&%  %%%&&;%%&&       .$      ",
"    %&&&%   %%&&&;%%&       .$      ",
"    %&&&%   %%%&&;:%%&      .$      ",
"    %%&&%   %%%%&&;:%;      .+      ",
"    %%%%%  ,,,%%%%%;;       .+      ",
"    %%%%%&&;::::%%%;:       .O      ",
"     %>>>< &%%::::::%        .+     ",
"      >><< &&&;::::::%       .O     ",
"      >><< &&&%;;;:::%       .+     ",
"       ><< &&&%%;;;::%       .O     ",
"           &&&%%;;;::%%      .O     ",
"           &&&%%:%%;:%%      .+     ",
"           %&&%%:%&;;%%%     .+     ",
"           %%&%%:%&;;%&&     .O     ",
"           %%%%%:%&;%&&&     .+     ",
"           ;::::%&&;%&&&     .O     ",
"          %;;:::%&&;%&&&     .+$    ",
"          %%;;::%&&;;&&&     .O$    ",
"         &&%;;;:%%&;;&&&     .O$    ",
"         &&&%;;:%%&&;%&&     .O$    ",
"        &&&%%%;::%&&;%&&     .+O    ",
"        &&&&%%%;:%&&;%&&     .OO    ",
"       &&&&%%%%%;;%%;%%&&    .OO    ",
"      &&&&&%%%%%%:%%;%%&&     .O    ",
"     &&&&&&&&%%%%%;::%%%&     .+    ",
"     &&&&&&&&%%%%%%;;:%%%     .O    ",
"    &&&&&&&&&%%%%%%%;;;%%     .O    ",
"    &&&&&&&&&%%%%%%%%%;::;    .O    ",
"   &&&&&&&&&%%%%%%%%%%%;;:    .+    ",
"   &&&&&&&&&&&&&&%%%%%%%%     .O    ",
"   &&&&&%&%%&&&&&&&%%%%%%     .O    ",
"  &&&&&%%%%%&&&&&&&&&%%%%     .O    ",
"  %%&%%%%%&&&&&%%%%%%%%%%      .+   "
};
