/* XPM */
static char *e73714e61c44490d8137ad0ba15dac96HWSCSoPruQZvbQnU[] = {
/* columns rows colors chars-per-pixel */
"32 32 19 1 ",
"  c None",
". c #1A0A15",
"X c #23020E",
"o c #38061A",
"O c #38061B",
"+ c #24012B",
"@ c #3C202C",
"# c #2D233F",
"$ c #492735",
"% c #65203C",
"& c #3D3756",
"* c #4C044E",
"= c #5A4573",
"- c #F22020",
"; c #BB5D1C",
": c #CE7B21",
"> c #885268",
", c #D2A325",
"< c #A26892",
/* pixels */
"                ++              ",
"             ++*+++             ",
"             ++*+++             ",
"         * ++*+*OO$+            ",
"        *  *****OO*$+++         ",
"        ********OO*@*++         ",
"        ++******XXO@*++         ",
"        ++******XXO@*++         ",
"           *****XXXO***         ",
"           ++***$$XXO++         ",
"             *****-XX           ",
"             &&&++XX            ",
"           ==&;.  XO            ",
"           ==&;.  XO            ",
"          ;&&&..,, O            ",
"         &&;;:&&   O            ",
"         &#::#;;&&&>            ",
"         & ##:&####O            ",
"         & ##:&####O            ",
"        #& ##&#&   %            ",
"        ## ,,##;   O            ",
"         ><&&:::   X            ",
"           &&#;:   X            ",
"           ###&;&& X            ",
"           ###&;&& X            ",
"           ;;:&#&& X%           ",
"          &##:&;&& X%           ",
"          &####;&& XO           ",
"         &&&&##;##  O           ",
"         &&&&##;##  O           ",
"        &&&#####;;  O           ",
"        &&#&&&&&##  O           "
};
